<svg xmlns="http://www.w3.org/2000/svg" viewBox="0 0 64 64" role="img" aria-label="Lilo favicon">
  <defs>
    <linearGradient id="bg" x1="0.1" y1="0.2" x2="0.8" y2="0.9">
      <stop offset="0%" stop-color="#00d4aa" />
      <stop offset="100%" stop-color="#6366f1" />
    </linearGradient>
  </defs>
  <path fill="url(#bg)" d="M 20.5 7.5 C 22 7.4 23.8 7.5 25.3 7.7 C 31.8 8.5 37.9 11.2 42.9 15.4 C 49.7 21.2 53.9 29.4 54.5 38.3 C 54.6 39.4 54.6 40.9 54.5 42 C 54.2 44.8 53.1 47.4 51.2 49.5 C 48.7 52.5 45.3 54.1 41.5 54.4 C 39.7 54.4 37.9 54.4 36.1 54.4 L 28.4 54.4 L 23.6 54.4 C 21.7 54.4 20.1 54.5 18.3 54.1 C 16 53.6 14 52.5 12.3 50.9 C 9.5 48.5 7.8 44.9 7.5 41.3 C 7.4 40 7.4 38.5 7.4 37.1 L 7.4 30.4 L 7.4 23.8 C 7.4 21.7 7.3 19.7 7.7 17.7 C 8.2 15.4 9.3 13.3 10.8 11.6 C 13.3 8.7 16.8 7 20.5 7.5 z" />
  <ellipse cx="31" cy="29.5" rx="9" ry="9" fill="white" />
</svg>
