<svg viewBox="0 0 107 107" fill="none" xmlns="http://www.w3.org/2000/svg">
  <!-- Done variant — emerald palette -->
  <path d="M60.9065 13.3431C53.8856 9.35358 45.9667 5.76126 37.5632 5.11636C18.0558 3.742 7.91589 15.2785 5.65274 41.5003C4.80348 51.223 4.97265 64.4747 5.31416 72.4244C6.30946 90.6784 12.9591 100.167 33.8675 101.731C40.17 102.19 48.1709 102.346 59.5708 102.289C70.8706 102.232 78.3705 102.194 84.8586 99.9036C96.039 96.117 103.39 86.7542 103.204 70.2632C102.914 52.9873 88.3943 30.0894 60.9065 13.3431ZM53.7889 67.4686C45.389 67.5108 37.4558 61.1699 37.4056 51.5499C37.3646 43.6968 43.7184 34.8298 53.7183 34.7795C62.0182 34.7378 69.3514 41.0817 69.5047 51.2902C69.5482 59.6342 63.5888 67.4193 53.7889 67.4686Z" fill="url(#lilo_blob)"/>
  <path d="M34.4342 6.01594C45.434 5.96061 55.1569 10.3292 60.5738 13.5414C86.3554 29.1184 102.272 51.3221 102.467 69.5801C102.64 83.617 96.992 93.5602 85.7136 97.7399C80.324 99.7304 75.0281 100.542 63.6283 100.6L59.2283 100.622C48.7285 100.675 40.3286 100.717 33.5256 100.162C15.1192 98.9785 7.28289 92.0481 6.39887 75.9533C5.96249 68.9857 5.77999 53.1818 6.819 41.4948C8.90572 19.7895 17.3344 6.10195 34.4342 6.01594ZM53.7634 69.0397C63.0633 68.9929 71.1283 62.2771 71.1689 50.8895C71.1207 41.6621 64.2772 33.3524 54.1774 33.4032C43.3775 33.4576 35.1196 41.5487 35.1694 51.0706C35.1185 60.4949 42.0636 69.0986 53.7634 69.0397ZM34.429 5.0343C16.1293 5.12635 8.10009 18.7137 5.71901 41.5003C4.86975 51.223 4.93893 64.4752 5.28043 72.4249C6.07573 90.6799 13.0202 99.1854 29.0298 100.97C35.9343 101.819 44.1357 102.072 59.2355 101.996L63.6354 101.974C74.3353 101.92 79.8327 101.402 84.9249 99.9036C95.9068 96.4125 103.46 87.3432 103.372 70.5572C103.181 53.1827 88.4605 30.0894 60.9728 13.3431C55.3554 10.0337 46.4289 4.97394 34.429 5.0343ZM53.7583 68.0581C43.5584 68.1094 37.2185 60.4843 37.1719 51.5514C37.1309 43.6983 42.9847 34.8339 53.784 34.6814C62.0834 34.5415 69.4177 41.0817 69.571 51.2902C69.7135 59.4373 64.0581 68.0063 53.7583 68.0581Z" fill="#064E3B"/>
  <path d="M34.4334 6.50535C45.4333 6.45001 54.9547 10.5251 60.7725 13.9317C83.9445 27.6566 101.659 49.4586 101.764 69.5822C101.835 83.2269 96.1861 93.072 85.4063 96.9547C80.1166 98.9447 74.7207 99.7571 63.5209 99.8135L59.2209 99.8351C49.5211 99.8839 40.6212 99.9287 33.6187 99.473C15.5123 98.288 7.87755 91.6511 7.09609 76.0465C6.65971 69.0789 6.47772 53.3732 7.51622 41.588C9.41524 22.2397 16.5337 6.59539 34.4334 6.50535ZM53.7586 68.7438C63.8584 68.693 70.8209 61.4918 70.8661 50.9878C70.82 42.1531 64.7775 34.0356 54.7767 33.8896C44.4758 33.7451 36.4158 41.4426 36.4661 51.0627C36.4152 60.4869 42.8587 68.7986 53.7586 68.7438ZM34.4283 5.52371C17.3285 5.60973 8.90244 19.7881 6.81571 41.4934C5.77671 53.1804 5.95921 68.9843 6.39558 75.9519C7.27961 92.0467 15.1159 98.9771 33.5223 100.161C40.3248 100.617 48.7252 100.673 59.225 100.62L63.625 100.598C75.0248 100.541 80.3207 99.729 85.7104 97.7385C96.9887 93.5588 102.637 83.6156 102.464 69.5786C102.268 51.3207 86.3522 29.117 60.5705 13.54C55.1537 10.3278 45.4282 5.46838 34.4283 5.52371ZM53.755 68.0567C43.5551 68.108 37.2152 60.4829 37.1686 51.55C37.1271 43.5987 43.1824 35.0278 53.5813 34.7791C61.9807 34.6387 69.4144 41.0803 69.5677 51.2888C69.7102 59.4359 64.0549 68.0049 53.755 68.0567Z" fill="url(#lilo_shimmer)"/>
  <path d="M54.4982 33.4025C44.0983 33.4548 35.9394 41.3492 35.9907 51.1656C36.0424 61.0801 43.1854 69.2902 54.2852 69.2343C64.8851 69.181 71.4456 61.5892 71.3907 51.0857C71.3446 42.2509 65.1981 33.3487 54.4982 33.4025ZM54.276 67.4674C44.4761 67.5167 38.0373 60.0884 37.9927 51.5482C37.9517 43.6951 44.1055 34.8291 54.3054 34.7778C62.6053 34.7361 69.9385 41.08 70.0918 51.2885C70.1353 59.6325 64.1759 67.4176 54.276 67.4674Z" fill="url(#lilo_iris)"/>
  <defs>
    <linearGradient id="lilo_blob" x1="12.6183" y1="16.4917" x2="94.2882" y2="93.3169" gradientUnits="userSpaceOnUse">
      <stop stop-color="#022C22"/>
      <stop offset="1" stop-color="#10B981"/>
    </linearGradient>
    <linearGradient id="lilo_shimmer" x1="6.479" y1="53.6186" x2="101.678" y2="53.1217" gradientUnits="userSpaceOnUse">
      <stop stop-color="#022C22" stop-opacity="0.4"/>
      <stop offset="0.1016" stop-color="#064E3B" stop-opacity="0.3536"/>
      <stop offset="0.2218" stop-color="#065F46" stop-opacity="0.3"/>
      <stop offset="0.3869" stop-color="#047857" stop-opacity="0.2328"/>
      <stop offset="0.6297" stop-color="#059669" stop-opacity="0.1351"/>
      <stop offset="0.6875" stop-color="#10B981" stop-opacity="0.08"/>
      <stop offset="0.757" stop-color="#34D399" stop-opacity="0.2328"/>
      <stop offset="0.8528" stop-color="#A7F3D0" stop-opacity="0.4536"/>
      <stop offset="0.9182" stop-color="white" stop-opacity="0.6"/>
    </linearGradient>
    <linearGradient id="lilo_iris" x1="36.0922" y1="51.4596" x2="71.3917" y2="51.2753" gradientUnits="userSpaceOnUse">
      <stop stop-color="#064E3B" stop-opacity="0.8"/>
      <stop offset="1" stop-color="#022C22" stop-opacity="0.7"/>
    </linearGradient>
  </defs>
</svg>
